<?xml version="1.0" encoding="UTF-8"?>
<svg width="2599px" height="2039px" viewBox="0 0 2599 2039" version="1.1" xmlns="http://www.w3.org/2000/svg" xmlns:xlink="http://www.w3.org/1999/xlink">
    <!-- Generator: Sketch 54.1 (76490) - https://sketchapp.com -->
    <title>Group 15</title>
    <desc>Created with Sketch.</desc>
    <g id="Page-1" stroke="none" stroke-width="1" fill="none" fill-rule="evenodd">
        <g id="Artboard" transform="translate(-91.000000, -291.000000)">
            <g id="Group-15" transform="translate(55.000000, 291.000000)">
                <g id="Group" transform="translate(36.000000, 0.000000)">
                    <rect id="Rectangle" fill="#715A36" x="1" y="0" width="2598" height="2039"></rect>
                    <rect id="Rectangle" fill="#986F31" x="1" y="152" width="2598" height="209"></rect>
                    <rect id="Rectangle" fill="#986F31" x="1" y="1525" width="2598" height="383"></rect>
                    <rect id="Rectangle" fill="#986F31" x="1" y="658" width="2598" height="618"></rect>
                    <rect id="Rectangle" fill="#986F31" x="1" y="1380" width="2598" height="90"></rect>
                    <rect id="Rectangle" fill="#986F31" x="1" y="416" width="2598" height="26"></rect>
                    <rect id="Rectangle" fill="#B77F2B" x="1" y="1007" width="2598" height="26"></rect>
                    <rect id="Rectangle" fill="#B77F2B" x="1" y="580" width="2598" height="26"></rect>
                    <rect id="Rectangle" fill="#B77F2B" x="1" y="1300" width="2598" height="26"></rect>
                    <rect id="Rectangle" fill="#B77F2B" x="1" y="80" width="2598" height="26"></rect>
                    <rect id="Rectangle" fill="#B77F2B" x="1" y="1065" width="2598" height="157"></rect>
                    <rect id="Rectangle" fill="#B77F2B" x="1" y="723" width="2598" height="209"></rect>
                    <rect id="Rectangle" fill="#B77F2B" x="1" y="1557" width="2598" height="90"></rect>
                    <rect id="Rectangle" fill="#B77F2B" x="1" y="184" width="2598" height="144"></rect>
                    <rect id="Rectangle" fill="#B77F2B" x="1" y="1848" width="2598" height="26"></rect>
                    <rect id="Rectangle" fill="#B77F2B" x="1" y="1768" width="2598" height="26"></rect>
                    <rect id="Rectangle" fill="#986F31" x="1" y="467" width="2598" height="26"></rect>
                    <rect id="Rectangle" fill="#986F31" x="1" y="1962" width="2598" height="26"></rect>
                    <rect id="Rectangle" fill="#FFAF36" x="1" y="877" width="2598" height="13"></rect>
                    <rect id="Rectangle" fill="#FFAF36" x="1" y="1925" width="2598" height="13"></rect>
                    <rect id="Rectangle" fill="#FFAF36" x="1" y="2013" width="2598" height="13"></rect>
                    <rect id="Rectangle" fill="#FFAF36" x="1" y="1734" width="2598" height="13"></rect>
                    <rect id="Rectangle" fill="#FFAF36" x="1" y="1351" width="2598" height="13"></rect>
                    <rect id="Rectangle" fill="#FFAF36" x="1" y="841" width="2598" height="13"></rect>
                    <rect id="Rectangle" fill="#FFAF36" x="1" y="588" width="2598" height="13"></rect>
                    <rect id="Rectangle" fill="#FFAF36" x="1" y="193" width="2598" height="13"></rect>
                    <rect id="Rectangle" fill="#FFAF36" x="1" y="12" width="2598" height="13"></rect>
                    <rect id="Rectangle" fill="#FFAF36" x="1" y="385" width="2598" height="13"></rect>
                    <rect id="Rectangle" fill="#FFAF36" x="1" y="511" width="2598" height="13"></rect>
                    <rect id="Rectangle" fill="#FFAF36" x="1" y="1084" width="2598" height="13"></rect>
                    <rect id="Rectangle" fill="#FFAF36" x="1" y="1434" width="2598" height="13"></rect>
                    <rect id="Rectangle" fill="#FFC56E" x="1" y="1182" width="2598" height="7"></rect>
                    <rect id="Rectangle" fill="#FFC56E" x="1" y="1974" width="2598" height="7"></rect>
                    <rect id="Rectangle" fill="#FFC56E" x="1" y="1887" width="2598" height="7"></rect>
                    <rect id="Rectangle" fill="#FFC56E" x="1" y="1538" width="2598" height="7"></rect>
                    <rect id="Rectangle" fill="#FFC56E" x="0" y="1716" width="2598" height="7"></rect>
                    <rect id="Rectangle" fill="#FFC56E" x="1" y="1044" width="2598" height="7"></rect>
                    <rect id="Rectangle" fill="#FFC56E" x="1" y="428" width="2598" height="7"></rect>
                    <rect id="Rectangle" fill="#FFC56E" x="1" y="35" width="2598" height="7"></rect>
                    <rect id="Rectangle" fill="#FFC56E" x="1" y="129" width="2598" height="7"></rect>
                    <rect id="Rectangle" fill="#FFC56E" x="1" y="116" width="2598" height="7"></rect>
                    <rect id="Rectangle" fill="#FFC56E" x="1" y="247" width="2598" height="7"></rect>
                    <rect id="Rectangle" fill="#FFC56E" x="1" y="666" width="2598" height="7"></rect>
                    <rect id="Rectangle" fill="#FFC56E" x="1" y="740" width="2598" height="7"></rect>
                    <rect id="Rectangle" fill="#FFC56E" x="1" y="823" width="2598" height="7"></rect>
                    <rect id="Rectangle" fill="#FFC56E" x="1" y="1389" width="2598" height="7"></rect>
                    <rect id="Rectangle" fill="#FFC56E" x="1" y="530" width="2598" height="7"></rect>
                </g>
                <path d="M1822.62742,718.000451 L1823.62742,717 L1876.62742,770.02388 L1877,770.02388 L1877,1470.33928 L1854.69343,1470.33928 L1854.03301,1471 L1837.37258,1454.33207 L924,1454.33207 L924,1470.33928 L901,1470.33928 L901,1470.03257 L900.033009,1471 L847.372583,1418.31585 L847,1418.31585 L847,718.000451 L870,718.000451 L870,729.005407 L1800,729.005407 L1800,718.000451 L1822.62742,718.000451 Z" id="Combined-Shape" fill="#000000" opacity="0.496301"></path>
                <rect id="Rectangle" fill="#FFF08A" x="2000" y="1146" width="265" height="265"></rect>
                <rect id="Rectangle" fill="#FFF08A" transform="translate(2391.174388, 746.174388) rotate(26.000000) translate(-2391.174388, -746.174388) " x="2258.67439" y="613.674388" width="265" height="265"></rect>
                <rect id="Rectangle" fill="#FFF08A" transform="translate(1824.495411, 472.495411) rotate(-10.000000) translate(-1824.495411, -472.495411) " x="1691.99541" y="339.995411" width="265" height="265"></rect>
                <rect id="Rectangle" fill="#FFF08A" transform="translate(541.383297, 1455.383297) rotate(-45.000000) translate(-541.383297, -1455.383297) " x="408.883297" y="1322.8833" width="265" height="265"></rect>
                <g id="Group-5" transform="translate(2133.000000, 1245.000000)">
                    <path d="M40.4518576,3.44506645e-11 L50.4490313,10.0265563 L50.542741,9.97658353 L50.7057156,10.2839951 L51.9508837,11.5328228 L51.9004965,11.583358 L51.9004965,12.5376555 L81,67.4267133 L80.9037152,67.4780594 L80.9037152,462.353448 L80.9541023,462.403983 L80.9037152,462.454518 L80.9037152,502.949465 L40.5274383,502.949465 L40.4770512,503 L29.7412677,492.232663 L40.4518576,492.232663 L40.4518576,3.44542173e-11 Z M7.88702437e-13,462.378715 L7.88702437e-13,49.0163614 L0,462.378715 Z" id="Combined-Shape" fill-opacity="0.5" fill="#000000"></path>
                    <g id="Group-4" transform="translate(29.000000, 1.000000)">
                        <g id="Group-3" transform="translate(0.000000, 53.644860)">
                            <rect id="Rectangle" fill="#1D8EFF" x="0" y="0" width="23" height="383.17757"></rect>
                            <rect id="Rectangle" fill="#6EB7FF" x="0" y="0" width="7.66666667" height="383.17757"></rect>
                            <rect id="Rectangle" fill="#0080FF" x="15.3333333" y="0" width="7.66666667" height="383.17757"></rect>
                        </g>
                        <polygon id="Triangle" fill="#FFEBC0" points="11.5 0 23 53.6448598 0 53.6448598"></polygon>
                        <path d="M11.5,53.6448598 L11.5,-2.48689958e-14 L23,53.6448598 L11.5,53.6448598 Z" id="Combined-Shape" fill="#DECFAE"></path>
                        <polygon id="Triangle" fill="#000000" points="11.5 7.46069873e-14 15.3333333 17.8816199 7.66666667 17.8816199"></polygon>
                        <rect id="Rectangle" fill="#D8D8D8" x="0" y="436.82243" width="23" height="35.2523364"></rect>
                        <rect id="Rectangle" fill="#B8B7B7" x="15.3333333" y="436.82243" width="7.66666667" height="35.2523364"></rect>
                        <rect id="Rectangle" fill="#E5E5E5" x="0" y="436.82243" width="7.66666667" height="35.2523364"></rect>
                        <rect id="Rectangle" fill="#FFCBCB" x="0" y="471.308411" width="23" height="20.6915888"></rect>
                        <rect id="Rectangle" fill="#FFB1B1" x="11.5" y="471.308411" width="11.5" height="20.6915888"></rect>
                    </g>
                </g>
                <g id="Group-2" transform="translate(208.000000, 1245.000000)">
                    <g id="Group" transform="translate(0.000000, 0.000000)">
                        <path d="M290.60127,134.26298 C291.170781,134.245909 291.743316,134.237288 292.31864,134.237288 C314.786335,134.237288 333,147.384181 333,163.601695 C333,179.360304 315.802531,192.219611 294.215403,192.934749 C283.901447,252.056735 232.335332,297 170.274559,297 C134.143644,297 101.569794,281.766904 78.6222793,257.371371 L36.906801,215.646338 L48.7351417,203.815288 C45.9441251,193.399 44.4559194,182.449605 44.4559194,171.152542 C44.4559194,101.648911 100.786843,45.3050847 170.274559,45.3050847 C182.388701,45.3050847 194.102972,47.0175255 205.188614,50.2135959 L217.212094,38.599997 L260.912579,83.8635395 L260.910389,83.8656548 C274.446052,97.9237627 284.743304,115.123255 290.60127,134.26298 Z" id="Combined-Shape" fill="#000000" opacity="0.498729"></path>
                        <rect id="Rectangle" fill="#F0DCDC" x="205.503778" y="109.067797" width="127.496222" height="33.559322"></rect>
                        <ellipse id="Oval" fill="#FFF3F3" cx="125.81864" cy="125.847458" rx="125.81864" ry="125.847458"></ellipse>
                        <ellipse id="Oval" stroke="#000000" fill="#652D00" cx="125.81864" cy="125.847458" rx="100.654912" ry="100.677966"></ellipse>
                        <ellipse id="Oval" fill="#723402" cx="125.81864" cy="125.847458" rx="88.0730479" ry="88.0932203"></ellipse>
                    </g>
                    <rect id="Rectangle" fill="#FFFFFF" x="297" y="116" width="20" height="20"></rect>
                    <rect id="Rectangle" fill="#FFFFFF" x="321" y="116" width="8" height="20"></rect>
                </g>
                <g id="Group-6" transform="translate(900.000000, 265.000000)">
                    <path d="M531.228444,45.3192367 C556.020998,47.9633659 582.944845,53.7125948 609.876387,66.1620821 C624.098631,72.7365164 640.593158,99.1983409 638.876385,128.269975 C637.937102,144.17569 630.657677,157.589821 620.320537,172.511263 C615.287644,179.776135 606.791156,186.790822 599.746132,192.239486 C590.279767,199.56083 590.279767,199.56083 583.184807,203.192207 C571.943756,208.945657 556.399935,216.193778 536.170047,221.761753 C508.770194,229.303155 441.107404,255.113368 321.354664,255.113368 C311.347244,255.113368 282.191062,251.376849 239.498028,237.37504 C230.307244,234.360787 205.943629,214.335151 166.793459,223.139494 C156.671074,225.415881 145.126273,234.087648 140.097501,250.113954 C137.604748,258.058164 138.400992,270.214695 142.486232,286.583546 L145.332894,285.92584 L156.017096,332.239643 L154.004993,332.70453 L155.553428,339.416675 L154.882727,339.571637 L155.502101,342.256495 L156.172802,342.101533 L157.721237,348.813679 L157.050536,348.968641 L157.66991,351.653499 L158.340611,351.498537 L159.889046,358.210682 L147.81643,361 L146.267995,354.287855 L146.938695,354.132892 L146.319321,351.448034 L145.64862,351.602996 L144.100185,344.890851 L144.770886,344.735889 L144.151512,342.051031 L143.480811,342.205993 L141.932376,335.493847 L139.920274,335.958733 L129.236072,289.64493 L132.39852,288.914262 C128.224884,268.653566 127.745737,253.984203 130.961078,244.906173 C136.288114,229.86609 148.634095,218.196906 165.416773,213.455499 C202.296996,203.036177 231.56246,224.352947 241.057354,228.032295 C282.208963,243.978876 314.09862,244.906173 320.939515,244.906173 C447.424818,244.906173 560.732047,207.227404 583.184807,192.239486 C654.390537,144.707439 627.78814,84.9705667 604.886946,74.5387176 C580.914445,63.6188717 555.197891,58.3529316 531.228444,55.8186346 L531.228444,62.0430091 L490.616201,62.0430091 L490.616201,60.1077494 C484.479974,61.6412318 480.222723,62.6938451 477.844447,63.2655893 C400.718919,81.8067861 353.258581,89.7165469 335.463434,86.9948717 C279.956357,78.5053531 241.310189,57.3884913 218.058453,57.8062463 C183.679393,58.4239216 158.693646,61.9670221 143.101212,68.4355477 L143.916987,69.9709728 L66.1223138,111.366812 L66.0021308,111.140607 C64.7933092,111.974895 63.5150542,112.754178 62.171803,113.468944 C47.9061429,121.059939 31.7116989,118.499523 26.0005,107.750094 C20.2893011,97.0006652 27.2240621,82.1328142 41.4897222,74.5418193 C55.7553824,66.9508244 71.9498264,69.5112409 77.6610253,80.2606696 C79.0323771,82.8417824 79.6746156,85.6603462 79.6613232,88.5586036 L137.453837,57.8062463 L138.784649,60.311057 C150.483837,54.1731847 176.908439,50.7431004 218.058453,50.0208039 C245.914151,49.5318595 285.798778,71.387492 335.463434,78.9650162 C354.535844,81.8749659 402.820723,73.3827399 480.318071,53.4883381 C475.687484,53.4747701 471.316504,53.4885746 467.254323,53.4885746 C415.151206,53.4885746 371.542141,41.1314049 288.931672,31.0438479 C261.926845,27.746291 217.872886,24.2943993 156.769796,20.688173 L156.769796,22.777405 L91.3157283,22.777405 C92.6870702,25.3301689 93.4422302,28.1205568 93.4422302,31.0438479 C93.4422302,43.218329 80.3445078,53.0876958 64.1876483,53.0876958 C48.0307889,53.0876958 34.9330665,43.218329 34.9330665,31.0438479 C34.9330665,18.8693669 48.0307889,9 64.1876483,9 C65.7089744,9 67.2031779,9.08750241 68.6618785,9.25619239 L68.6618785,9 L156.769796,9 L156.769796,11.6498708 C217.529054,14.358304 261.583013,17.3575417 288.931672,20.6475838 C370.324905,30.4391852 415.052343,43.1083983 467.254323,43.1083983 C474.460502,43.1083983 482.288352,43.0536741 490.616201,43.1502134 L490.616201,39.3102909 L531.228444,39.3102909 L531.228444,45.3192367 Z" id="Combined-Shape" fill="#000000" opacity="0.5"></path>
                    <g id="Group-5" transform="translate(0.000000, 0.000000)">
                        <g id="Group-4">
                            <g id="Group-2" transform="translate(20.451155, 0.000000)">
                                <rect id="Rectangle" fill="#FFFFFF" x="33.7519769" y="0" width="88.1684294" height="13.7832285"></rect>
                                <ellipse id="Oval" fill="#FFFFFF" cx="29.2746738" cy="22.0531656" rx="29.2746738" ry="22.0531656"></ellipse>
                                <ellipse id="Oval" fill="#716D6D" cx="29.2746738" cy="35.1472327" rx="14.8095409" ry="4.13496855"></ellipse>
                            </g>
                            <rect id="Rectangle" fill="#D8D8D8" x="129.28406" y="0" width="4.13289513" height="13.7832285"></rect>
                            <g id="Group" transform="translate(65.162594, 69.745067) scale(1, -1) rotate(28.000000) translate(-65.162594, -69.745067) translate(4.162594, 47.245067)">
                                <rect id="Rectangle" fill="#FFFFFF" x="33.7519769" y="0" width="88.1684294" height="13.7832285"></rect>
                                <ellipse id="Oval" fill="#FFFFFF" cx="29.2746738" cy="22.0531656" rx="29.2746738" ry="22.0531656"></ellipse>
                                <ellipse id="Oval" fill="#716D6D" cx="29.2746738" cy="35.1472327" rx="14.8095409" ry="4.13496855"></ellipse>
                                <rect id="Rectangle" fill="#D8D8D8" x="108.832905" y="0" width="4.13289513" height="13.7832285"></rect>
                            </g>
                            <path d="M141.682745,2.62033824 C202.839702,5.33793469 247.153522,8.34865765 274.624205,11.6525071 C356.073339,21.4482473 400.831496,34.1228155 453.069328,34.1228155 C489.845748,34.1228155 542.802661,32.6988625 595.789344,57.1862438 C610.021356,63.763457 626.527211,90.2364666 624.80926,119.320389 C623.869332,135.232827 616.584907,148.652628 606.240667,163.580377 C601.204318,170.84832 592.701994,177.865972 585.652132,183.316939 C576.179265,190.641377 576.179265,190.641377 569.079432,194.27429 C557.830661,200.030171 542.276165,207.281356 522.032383,212.851685 C494.613712,220.396274 426.904451,246.217397 307.069466,246.217397 C297.055172,246.217397 267.878966,242.479299 225.156611,228.471572 C215.959515,225.456045 191.579167,205.421943 152.402109,214.230008 C142.272772,216.507358 130.720042,225.18279 125.687816,241.215869 C122.964924,249.891226 124.163672,263.587824 129.28406,282.305664 L118.611566,282.994825 C113.861694,261.187363 113.172878,245.524384 116.545118,236.005887 C121.875813,220.959448 134.230273,209.285331 151.024477,204.54192 C187.930029,194.118193 217.215593,215.443974 226.717008,219.124878 C267.896879,235.078199 299.808438,236.005887 306.654032,236.005887 C433.226205,236.005887 546.611252,198.311192 569.079432,183.316939 C640.334067,135.764801 613.713399,76.0026785 590.796477,65.56642 C542.440874,43.5455065 486.993927,44.5073794 453.069328,44.5073794 C400.930427,44.5073794 357.291411,32.1449864 274.624205,22.0531656 C247.499463,18.7418399 203.185643,15.2749537 141.682745,11.6525071 L141.682745,2.62033824 Z" id="Rectangle" fill="#FFFFFF"></path>
                            <path d="M121.603477,53.0329181 C131.500569,45.8231799 158.866847,41.8249215 203.702311,41.0381429 C231.577141,40.5489918 271.48916,62.4138624 321.187926,69.9945896 C341.347632,73.0696204 394.123087,63.4174715 479.51429,41.0381429 L500.935131,44.976395 C480.883366,50.0323345 468.460564,53.1363783 463.666726,54.2885266 C386.488228,72.8375606 338.995294,80.7506647 321.187926,78.0278392 C265.642726,69.5347321 226.970016,48.4089445 203.702311,48.8268761 C168.20293,49.4645115 142.712169,53.2183786 127.230028,60.0884774 L121.603477,53.0329181 Z" id="Rectangle" fill="#FFFFFF"></path>
                            <g id="Group-3" transform="translate(131.420060, 314.902191) rotate(-13.000000) translate(-131.420060, -314.902191) translate(122.920060, 277.902191)">
                                <rect id="Rectangle" fill="#FFFFFF" x="0" y="0" width="16.5315805" height="47.5521383"></rect>
                                <rect id="Rectangle" fill="#DAB433" x="2.06644756" y="47.5521383" width="12.3986854" height="6.89161425"></rect>
                                <rect id="Rectangle" fill="#DAB433" x="2.06644756" y="66.8486582" width="12.3986854" height="6.89161425"></rect>
                                <rect id="Rectangle" fill="#DAB433" x="2.06644756" y="57.2003982" width="12.3986854" height="6.89161425"></rect>
                                <rect id="Rectangle" fill="#D8D8D8" x="2.75526342" y="54.4437525" width="11.0210537" height="2.7566457"></rect>
                                <rect id="Rectangle" fill="#D8D8D8" x="2.75526342" y="64.0920125" width="11.0210537" height="2.7566457"></rect>
                            </g>
                        </g>
                        <rect id="Rectangle" fill="#FFFFFF" x="476.447251" y="30.3231027" width="40.6401354" height="22.742327"></rect>
                    </g>
                </g>
                <g id="Group-11" transform="translate(0.000000, 301.000000)">
                    <path d="M249.016641,530.888749 C228.118682,491.92988 216.265605,447.394004 216.265605,400.089504 C216.265605,372.638829 220.257069,346.120474 227.691242,321.083232 L163.990377,207.578765 L295.616961,205.975127 C345.892551,154.764798 415.905135,123 493.33628,123 C538.864244,123 581.827459,133.981741 619.721876,153.441002 L629.170606,143.991629 L673.69755,188.521599 L673.040762,189.178432 C679.564693,194.743192 685.827269,200.605366 691.807503,206.74397 L820.009623,208.305887 L758.188461,318.460953 L758.188479,318.461012 C766.131335,344.266198 770.406956,371.678505 770.406956,400.089504 C770.406956,531.891685 678.389252,642.200519 555.095637,670.270087 L492.916476,775 L430.60482,670.04692 C373.4623,656.819624 323.090312,625.914251 285.560245,583.402602 L284.931282,584.031607 L240.404338,539.501638 L249.016641,530.888749 Z" id="Combined-Shape" fill="#000000" opacity="0.501767113"></path>
                    <g id="Group-10" transform="translate(0.000000, 0.000000)">
                        <g id="Group-7" transform="translate(121.568914, 33.765020)">
                            <ellipse id="Oval" fill="#5E8B9C" cx="276.976744" cy="277.086903" rx="276.976744" ry="277.086903"></ellipse>
                            <ellipse id="Oval" fill="#68533D" cx="276.976744" cy="277.086903" rx="233.331924" ry="233.424725"></ellipse>
                            <ellipse id="Oval" fill="#3A3630" cx="128.41649" cy="382.044064" rx="6.71458774" ry="6.71725826"></ellipse>
                            <ellipse id="Oval" fill="#3A3630" cx="193.883721" cy="463.49082" rx="6.71458774" ry="6.71725826"></ellipse>
                            <ellipse id="Oval" fill="#3A3630" cx="236.689218" cy="230.905753" rx="6.71458774" ry="6.71725826"></ellipse>
                            <ellipse id="Oval" fill="#3A3630" cx="58.7526427" cy="237.623011" rx="6.71458774" ry="6.71725826"></ellipse>
                            <ellipse id="Oval" fill="#3A3630" cx="147.72093" cy="130.986536" rx="6.71458774" ry="6.71725826"></ellipse>
                            <ellipse id="Oval" fill="#3A3630" cx="270.262156" cy="343.419829" rx="6.71458774" ry="6.71725826"></ellipse>
                            <ellipse id="Oval" fill="#3A3630" cx="423.019027" cy="362.731946" rx="6.71458774" ry="6.71725826"></ellipse>
                            <ellipse id="Oval" fill="#3A3630" cx="452.395349" cy="149.458996" rx="6.71458774" ry="6.71725826"></ellipse>
                            <ellipse id="Oval" fill="#3A3630" cx="399.51797" cy="217.471236" rx="6.71458774" ry="6.71725826"></ellipse>
                            <ellipse id="Oval" fill="#3A3630" cx="296.281184" cy="91.5226438" rx="6.71458774" ry="6.71725826"></ellipse>
                            <ellipse id="Oval" fill="#3A3630" cx="333.211416" cy="156.176255" rx="6.71458774" ry="6.71725826"></ellipse>
                            <ellipse id="Oval" fill="#3A3630" cx="352.515856" cy="407.233782" rx="6.71458774" ry="6.71725826"></ellipse>
                            <ellipse id="Oval" fill="#886635" cx="289.566596" cy="463.49082" rx="6.71458774" ry="6.71725826"></ellipse>
                            <ellipse id="Oval" fill="#886635" cx="429.733615" cy="420.668299" rx="6.71458774" ry="6.71725826"></ellipse>
                            <ellipse id="Oval" fill="#886635" cx="476.735729" cy="283.804162" rx="6.71458774" ry="6.71725826"></ellipse>
                            <ellipse id="Oval" fill="#886635" cx="392.803383" cy="149.458996" rx="6.71458774" ry="6.71725826"></ellipse>
                            <ellipse id="Oval" fill="#886635" cx="214.027484" cy="91.5226438" rx="6.71458774" ry="6.71725826"></ellipse>
                            <ellipse id="Oval" fill="#886635" cx="339.926004" cy="244.340269" rx="6.71458774" ry="6.71725826"></ellipse>
                            <ellipse id="Oval" fill="#886635" cx="98.2008457" cy="193.960832" rx="6.71458774" ry="6.71725826"></ellipse>
                            <ellipse id="Oval" fill="#886635" cx="175.418605" cy="270.369645" rx="6.71458774" ry="6.71725826"></ellipse>
                            <ellipse id="Oval" fill="#886635" cx="98.2008457" cy="362.731946" rx="6.71458774" ry="6.71725826"></ellipse>
                            <ellipse id="Oval" fill="#886635" cx="229.97463" cy="395.47858" rx="6.71458774" ry="6.71725826"></ellipse>
                            <ellipse id="Oval" fill="#E5A445" cx="309.710359" cy="388.761322" rx="6.71458774" ry="6.71725826"></ellipse>
                            <ellipse id="Oval" fill="#E5A445" cx="392.803383" cy="463.49082" rx="6.71458774" ry="6.71725826"></ellipse>
                            <ellipse id="Oval" fill="#E5A445" cx="409.589852" cy="290.52142" rx="6.71458774" ry="6.71725826"></ellipse>
                            <ellipse id="Oval" fill="#E5A445" cx="416.30444" cy="117.55202" rx="6.71458774" ry="6.71725826"></ellipse>
                            <ellipse id="Oval" fill="#E5A445" cx="111.630021" cy="283.804162" rx="6.71458774" ry="6.71725826"></ellipse>
                            <ellipse id="Oval" fill="#E5A445" cx="263.547569" cy="251.057528" rx="6.71458774" ry="6.71725826"></ellipse>
                            <ellipse id="Oval" fill="#E5A445" cx="193.883721" cy="156.176255" rx="6.71458774" ry="6.71725826"></ellipse>
                            <ellipse id="Oval" fill="#E5A445" cx="154.435518" cy="443.339045" rx="6.71458774" ry="6.71725826"></ellipse>
                            <ellipse id="Oval" fill="#E5A445" cx="276.137421" cy="64.6536108" rx="6.71458774" ry="6.71725826"></ellipse>
                        </g>
                        <g id="Group-8" transform="translate(0.000000, 0.000000)" fill="#566D4C">
                            <path d="M271.363958,470.806637 C265.151316,461.454684 261.735933,451.255501 261.735933,440.578974 C261.735933,395.365307 322.987733,358.712388 398.545658,358.712388 C474.103583,358.712388 535.355383,395.365307 535.355383,440.578974 C535.355383,451.378492 531.860858,461.689604 525.511542,471.129495 L398.125997,685.7589 L270.54883,470.806636 L271.363945,470.806636 Z" id="Combined-Shape"></path>
                            <path d="M83.4884898,149.039169 C77.2758484,139.687216 73.8604651,129.488033 73.8604651,118.811506 C73.8604651,73.5978391 135.112265,36.9449204 210.67019,36.9449204 C286.228115,36.9449204 347.479915,73.5978391 347.479915,118.811506 C347.479915,129.611024 343.98539,139.922136 337.636074,149.362027 L210.250529,363.991432 L82.6733615,149.039168 L83.4884774,149.039168 Z" id="Combined-Shape" transform="translate(210.670190, 200.468176) rotate(120.000000) translate(-210.670190, -200.468176) "></path>
                            <path d="M456.148109,149.039169 C449.935468,139.687216 446.520085,129.488033 446.520085,118.811506 C446.520085,73.5978391 507.771885,36.9449204 583.32981,36.9449204 C658.887735,36.9449204 720.139535,73.5978391 720.139535,118.811506 C720.139535,129.611024 716.64501,139.922136 710.295693,149.362027 L582.910148,363.991432 L455.332981,149.039168 L456.148097,149.039168 Z" id="Combined-Shape" transform="translate(583.329810, 200.468176) rotate(240.000000) translate(-583.329810, -200.468176) "></path>
                            <rect id="Rectangle" x="388.473777" y="310.851923" width="20.1437632" height="67.1725826"></rect>
                            <polygon id="Rectangle" transform="translate(363.832093, 291.029550) rotate(120.000000) translate(-363.832093, -291.029550) " points="353.762989 257.455008 373.91276 257.451539 373.901197 324.604093 353.751425 324.607562"></polygon>
                            <polygon id="Rectangle" transform="translate(432.656617, 291.029550) rotate(240.000000) translate(-432.656617, -291.029550) " points="422.575949 257.451539 442.725721 257.455008 442.737285 324.607562 422.587513 324.604093"></polygon>
                            <ellipse id="Oval" cx="398.545658" cy="310.851923" rx="12.589852" ry="12.5948592"></ellipse>
                        </g>
                        <g id="Group-8" transform="translate(397.000000, 343.000000) scale(-1, 1) translate(-397.000000, -343.000000) " fill="#566D4C">
                            <path d="M271.363958,470.806637 C265.151316,461.454684 261.735933,451.255501 261.735933,440.578974 C261.735933,395.365307 322.987733,358.712388 398.545658,358.712388 C474.103583,358.712388 535.355383,395.365307 535.355383,440.578974 C535.355383,451.378492 531.860858,461.689604 525.511542,471.129495 L398.125997,685.7589 L270.54883,470.806636 L271.363945,470.806636 Z" id="Combined-Shape"></path>
                            <path d="M83.4884898,149.039169 C77.2758484,139.687216 73.8604651,129.488033 73.8604651,118.811506 C73.8604651,73.5978391 135.112265,36.9449204 210.67019,36.9449204 C286.228115,36.9449204 347.479915,73.5978391 347.479915,118.811506 C347.479915,129.611024 343.98539,139.922136 337.636074,149.362027 L210.250529,363.991432 L82.6733615,149.039168 L83.4884774,149.039168 Z" id="Combined-Shape" transform="translate(210.670190, 200.468176) rotate(120.000000) translate(-210.670190, -200.468176) "></path>
                            <path d="M456.148109,149.039169 C449.935468,139.687216 446.520085,129.488033 446.520085,118.811506 C446.520085,73.5978391 507.771885,36.9449204 583.32981,36.9449204 C658.887735,36.9449204 720.139535,73.5978391 720.139535,118.811506 C720.139535,129.611024 716.64501,139.922136 710.295693,149.362027 L582.910148,363.991432 L455.332981,149.039168 L456.148097,149.039168 Z" id="Combined-Shape" transform="translate(583.329810, 200.468176) rotate(240.000000) translate(-583.329810, -200.468176) "></path>
                            <rect id="Rectangle" x="388.473777" y="310.851923" width="20.1437632" height="67.1725826"></rect>
                            <polygon id="Rectangle" transform="translate(363.832093, 291.029550) rotate(120.000000) translate(-363.832093, -291.029550) " points="353.762989 257.455008 373.91276 257.451539 373.901197 324.604093 353.751425 324.607562"></polygon>
                            <polygon id="Rectangle" transform="translate(432.656617, 291.029550) rotate(240.000000) translate(-432.656617, -291.029550) " points="422.575949 257.451539 442.725721 257.455008 442.737285 324.607562 422.587513 324.604093"></polygon>
                            <ellipse id="Oval" cx="398.545658" cy="310.851923" rx="12.589852" ry="12.5948592"></ellipse>
                        </g>
                        <g id="Group-9" transform="translate(313.190228, 359.552046)" fill="#A9BD75">
                            <rect id="Rectangle" x="81.9981361" y="0" width="6.71458774" height="314.871481"></rect>
                            <polygon id="Rectangle" transform="translate(44.484144, 112.579773) rotate(33.000000) translate(-44.484144, -112.579773) " points="41.1126546 36.5991401 47.8280345 36.60036 47.855633 188.560405 41.1402531 188.559186"></polygon>
                            <polygon id="Rectangle" transform="translate(126.183913, 112.579773) scale(-1, 1) rotate(33.000000) translate(-126.183913, -112.579773) " points="122.812424 36.5991401 129.527804 36.60036 129.555402 188.560405 122.840022 188.559186"></polygon>
                            <polygon id="Rectangle" transform="translate(111.098678, 184.222583) scale(-1, 1) rotate(33.000000) translate(-111.098678, -184.222583) " points="107.732221 135.947373 114.447601 135.948593 114.465136 232.497793 107.749756 232.496573"></polygon>
                            <polygon id="Rectangle" transform="translate(59.899947, 184.222583) rotate(33.000000) translate(-59.899947, -184.222583) " points="56.5334893 135.947373 63.2488692 135.948593 63.2664042 232.497793 56.5510243 232.496573"></polygon>
                            <polygon id="Rectangle" transform="translate(71.556719, 244.353716) rotate(33.000000) translate(-71.556719, -244.353716) " points="68.1941497 217.487242 74.9095296 217.488461 74.9192882 271.22019 68.2039083 271.21897"></polygon>
                            <polygon id="Rectangle" transform="translate(99.441906, 244.353716) scale(-1, 1) rotate(33.000000) translate(-99.441906, -244.353716) " points="96.0793367 217.487242 102.794717 217.488461 102.804475 271.22019 96.0890953 271.21897"></polygon>
                        </g>
                        <g id="Group-9" transform="translate(214.632748, 203.318421) rotate(120.000000) translate(-214.632748, -203.318421) translate(129.132748, 45.818421)" fill="#A9BD75">
                            <rect id="Rectangle" x="81.9981361" y="0" width="6.71458774" height="314.871481"></rect>
                            <polygon id="Rectangle" transform="translate(44.484144, 112.579773) rotate(33.000000) translate(-44.484144, -112.579773) " points="41.1126546 36.5991401 47.8280345 36.60036 47.855633 188.560405 41.1402531 188.559186"></polygon>
                            <polygon id="Rectangle" transform="translate(126.183913, 112.579773) scale(-1, 1) rotate(33.000000) translate(-126.183913, -112.579773) " points="122.812424 36.5991401 129.527804 36.60036 129.555402 188.560405 122.840022 188.559186"></polygon>
                            <polygon id="Rectangle" transform="translate(111.098678, 184.222583) scale(-1, 1) rotate(33.000000) translate(-111.098678, -184.222583) " points="107.732221 135.947373 114.447601 135.948593 114.465136 232.497793 107.749756 232.496573"></polygon>
                            <polygon id="Rectangle" transform="translate(59.899947, 184.222583) rotate(33.000000) translate(-59.899947, -184.222583) " points="56.5334893 135.947373 63.2488692 135.948593 63.2664042 232.497793 56.5510243 232.496573"></polygon>
                            <polygon id="Rectangle" transform="translate(71.556719, 244.353716) rotate(33.000000) translate(-71.556719, -244.353716) " points="68.1941497 217.487242 74.9095296 217.488461 74.9192882 271.22019 68.2039083 271.21897"></polygon>
                            <polygon id="Rectangle" transform="translate(99.441906, 244.353716) scale(-1, 1) rotate(33.000000) translate(-99.441906, -244.353716) " points="96.0793367 217.487242 102.794717 217.488461 102.804475 271.22019 96.0890953 271.21897"></polygon>
                        </g>
                        <g id="Group-9" transform="translate(579.319101, 203.318421) scale(-1, 1) rotate(120.000000) translate(-579.319101, -203.318421) translate(493.819101, 45.818421)" fill="#A9BD75">
                            <rect id="Rectangle" x="81.9981361" y="0" width="6.71458774" height="314.871481"></rect>
                            <polygon id="Rectangle" transform="translate(44.484144, 112.579773) rotate(33.000000) translate(-44.484144, -112.579773) " points="41.1126546 36.5991401 47.8280345 36.60036 47.855633 188.560405 41.1402531 188.559186"></polygon>
                            <polygon id="Rectangle" transform="translate(126.183913, 112.579773) scale(-1, 1) rotate(33.000000) translate(-126.183913, -112.579773) " points="122.812424 36.5991401 129.527804 36.60036 129.555402 188.560405 122.840022 188.559186"></polygon>
                            <polygon id="Rectangle" transform="translate(111.098678, 184.222583) scale(-1, 1) rotate(33.000000) translate(-111.098678, -184.222583) " points="107.732221 135.947373 114.447601 135.948593 114.465136 232.497793 107.749756 232.496573"></polygon>
                            <polygon id="Rectangle" transform="translate(59.899947, 184.222583) rotate(33.000000) translate(-59.899947, -184.222583) " points="56.5334893 135.947373 63.2488692 135.948593 63.2664042 232.497793 56.5510243 232.496573"></polygon>
                            <polygon id="Rectangle" transform="translate(71.556719, 244.353716) rotate(33.000000) translate(-71.556719, -244.353716) " points="68.1941497 217.487242 74.9095296 217.488461 74.9192882 271.22019 68.2039083 271.21897"></polygon>
                            <polygon id="Rectangle" transform="translate(99.441906, 244.353716) scale(-1, 1) rotate(33.000000) translate(-99.441906, -244.353716) " points="96.0793367 217.487242 102.794717 217.488461 102.804475 271.22019 96.0890953 271.21897"></polygon>
                        </g>
                        <path d="M535.355383,358.712388 L535.355383,685.05182 L534.935722,685.7589 L407.358555,470.806636 L408.173671,470.806636 L408.173683,470.806637 C401.961042,461.454684 398.545658,451.255501 398.545658,440.578974 C398.545658,395.365307 459.797459,358.712388 535.355383,358.712388 Z" id="Combined-Shape" fill="#000000" opacity="0.5" transform="translate(466.950521, 522.235644) scale(-1, 1) translate(-466.950521, -522.235644) "></path>
                        <path d="M686.356765,96.0726875 L686.356765,422.412119 L685.937104,423.119199 L558.359937,208.166935 L559.175052,208.166935 L559.175065,208.166936 C552.962423,198.814983 549.54704,188.6158 549.54704,177.939273 C549.54704,132.725606 610.79884,96.0726875 686.356765,96.0726875 Z" id="Combined-Shape" fill="#000000" opacity="0.5" transform="translate(617.951903, 259.595943) scale(-1, -1) rotate(60.000000) translate(-617.951903, -259.595943) "></path>
                        <path d="M244.872622,96.0726875 L244.872622,422.412119 L244.45296,423.119199 L116.875793,208.166935 L117.690909,208.166935 L117.690921,208.166936 C111.47828,198.814983 108.062896,188.6158 108.062896,177.939273 C108.062896,132.725606 169.314697,96.0726875 244.872622,96.0726875 Z" id="Combined-Shape" fill="#000000" opacity="0.5" transform="translate(176.467759, 259.595943) scale(1, -1) rotate(60.000000) translate(-176.467759, -259.595943) "></path>
                    </g>
                </g>
                <g id="Group-13" transform="translate(1999.000000, 517.000000)">
                    <path d="M155.356926,190.590912 C146.721381,184.584414 140.915265,175.835104 138.441848,166.221508 L138.400052,166.197377 C137.161566,161.328064 133.117334,156.250251 127.172496,152.817997 C121.227659,149.385744 114.808028,148.422242 109.971836,149.784339 L109.93004,149.760208 C99.2751822,152.729422 87.4807515,151.578708 77.1454689,145.61163 C56.7406965,133.830929 49.750254,107.73815 61.5318786,87.3317781 C73.3135031,66.9254058 99.4057332,59.9329175 119.810506,71.7136183 C130.145788,77.6806965 137.039552,87.3196158 139.795565,98.0316001 L139.837362,98.0557314 C141.075847,102.925045 145.120079,108.002857 151.064917,111.435111 C157.009755,114.867365 163.429386,115.830866 168.265577,114.468769 L168.307374,114.492901 C170.680095,113.831689 173.109328,113.374786 175.566375,113.129883 C177.614241,112.828067 179.709462,112.671739 181.841198,112.671739 C186.553956,112.671739 191.088247,113.435786 195.326941,114.846757 C199.904569,115.576056 205.53611,114.471892 210.795968,111.435111 C216.740806,108.002857 220.785038,102.925045 222.023523,98.0557314 L222.06532,98.0316001 C224.821334,87.3196158 231.715097,77.6806965 242.05038,71.7136183 C262.455152,59.9329175 288.547382,66.9254058 300.329007,87.3317781 C312.110631,107.73815 305.120189,133.830929 284.715416,145.61163 C274.380134,151.578708 262.585703,152.729422 251.930846,149.760208 L251.889049,149.784339 C247.052857,148.422242 240.633227,149.385744 234.688389,152.817997 C228.743551,156.250251 224.699319,161.328064 223.460834,166.197377 L223.419037,166.221508 C221.284784,174.516853 216.669151,182.168689 209.895469,187.970139 C207.333323,191.54912 205.733619,196.628017 205.733619,202.261291 C205.733619,209.125799 208.109018,215.167113 211.706724,218.674329 L211.706724,218.722592 C219.605568,226.465362 224.506235,237.254996 224.506235,249.189152 C224.506235,272.750554 205.404447,291.850844 181.841198,291.850844 C158.277949,291.850844 139.176162,272.750554 139.176162,249.189152 C139.176162,237.254996 144.076829,226.465362 151.975673,218.722592 L151.975673,218.674329 C155.573379,215.167113 157.948778,209.125799 157.948778,202.261291 C157.948778,197.890115 156.985582,193.852733 155.356926,190.590912 Z M181.841198,276.492635 C195.979148,276.492635 207.44022,265.032461 207.44022,250.89562 C207.44022,236.758779 195.979148,225.298605 181.841198,225.298605 C167.703249,225.298605 156.242176,236.758779 156.242176,250.89562 C156.242176,265.032461 167.703249,276.492635 181.841198,276.492635 Z M287.028408,95.0108826 C279.959433,82.7670592 264.304095,78.5715662 252.061231,85.6399867 C239.818368,92.7084072 235.624103,108.364074 242.693077,120.607898 C249.762052,132.851721 265.41739,137.047214 277.660253,129.978793 C289.903117,122.910373 294.097382,107.254706 287.028408,95.0108826 Z M74.8324777,95.0108826 C67.763503,107.254706 71.9577684,122.910373 84.2006319,129.978793 C96.4434953,137.047214 112.098833,132.851721 119.167808,120.607898 C126.236783,108.364074 122.042517,92.7084072 109.799654,85.6399867 C97.5567905,78.5715662 81.9014524,82.7670592 74.8324777,95.0108826 Z" id="Combined-Shape" fill="#000000" opacity="0.503720238" transform="translate(180.930443, 178.921071) rotate(35.000000) translate(-180.930443, -178.921071) "></path>
                    <g id="Group-12" transform="translate(168.470784, 165.684523) rotate(35.000000) translate(-168.470784, -165.684523) translate(42.970784, 52.184523)" fill="#D8D8D8">
                        <path d="M99.5542863,125.597103 C90.9187411,119.590605 85.1126251,110.841296 82.6392083,101.227699 L82.5974116,101.203568 C81.3589263,96.3342549 77.3146943,91.2564421 71.3698566,87.8241885 C65.4250189,84.3919349 59.0053881,83.4284335 54.1691964,84.7905304 L54.1273997,84.7663991 C43.4725424,87.7356134 31.6781116,86.5848988 21.342829,80.6178206 C0.93805664,68.8371198 -6.05238585,42.7443415 5.7292387,22.3379692 C17.5108633,1.9315969 43.6030933,-5.06089144 64.0078657,6.71980937 C74.3431483,12.6868876 81.2369118,22.3258069 83.9929254,33.0377912 L84.0347221,33.0619225 C85.2732074,37.9312358 89.3174395,43.0090486 95.2622771,46.4413022 C101.207115,49.8735558 107.626746,50.8370572 112.462937,49.4749603 L112.504734,49.4990916 C114.877455,48.8378797 117.306689,48.380977 119.763736,48.1360745 C121.811601,47.8342582 123.906822,47.6779302 126.038558,47.6779302 C130.751316,47.6779302 135.285607,48.4419768 139.524301,49.8529486 C144.101929,50.5822472 149.73347,49.4780827 154.993328,46.4413022 C160.938166,43.0090486 164.982398,37.9312358 166.220884,33.0619225 L166.26268,33.0377912 C169.018694,22.3258069 175.912457,12.6868876 186.24774,6.71980937 C206.652512,-5.06089144 232.744742,1.9315969 244.526367,22.3379692 C256.307991,42.7443415 249.317549,68.8371198 228.912777,80.6178206 C218.577494,86.5848988 206.783063,87.7356134 196.128206,84.7663991 L196.086409,84.7905304 C191.250218,83.4284335 184.830587,84.3919349 178.885749,87.8241885 C172.940911,91.2564421 168.896679,96.3342549 167.658194,101.203568 L167.616397,101.227699 C165.482144,109.523044 160.866512,117.17488 154.092829,122.97633 C151.530683,126.555311 149.930979,131.634209 149.930979,137.267482 C149.930979,144.13199 152.306378,150.173304 155.904084,153.68052 L155.904084,153.728783 C163.802928,161.471553 168.703595,172.261187 168.703595,184.195343 C168.703595,207.756745 149.601808,226.857035 126.038558,226.857035 C102.475309,226.857035 83.3735218,207.756745 83.3735218,184.195343 C83.3735218,172.261187 88.2741891,161.471553 96.1730328,153.728783 L96.1730328,153.68052 C99.7707391,150.173304 102.146138,144.13199 102.146138,137.267482 C102.146138,132.896306 101.182942,128.858924 99.5542863,125.597103 Z M126.038558,211.498826 C140.176508,211.498826 151.63758,200.038652 151.63758,185.901811 C151.63758,171.76497 140.176508,160.304796 126.038558,160.304796 C111.900609,160.304796 100.439536,171.76497 100.439536,185.901811 C100.439536,200.038652 111.900609,211.498826 126.038558,211.498826 Z M231.225768,30.0170737 C224.156793,17.7732503 208.501455,13.5777573 196.258592,20.6461778 C184.015728,27.7145983 179.821463,43.3702652 186.890437,55.6140886 C193.959412,67.857912 209.61475,72.053405 221.857614,64.9849845 C234.100477,57.916564 238.294743,42.2608971 231.225768,30.0170737 Z M19.0298378,30.0170737 C11.9608631,42.2608971 16.1551286,57.916564 28.397992,64.9849845 C40.6408554,72.053405 56.2961935,67.857912 63.3651682,55.6140886 C70.4341429,43.3702652 66.2398774,27.7145983 53.997014,20.6461778 C41.7541506,13.5777573 26.0988125,17.7732503 19.0298378,30.0170737 Z" id="Combined-Shape"></path>
                        <ellipse id="Oval" stroke="#979797" cx="125.185258" cy="91.1928556" rx="34.1320293" ry="34.1293532"></ellipse>
                    </g>
                </g>
                <g id="eraser" transform="translate(2041.000000, 1338.000000)">
                    <path d="M28.6536141,178.594545 L28.6536141,29.693792 L48.6749262,29.693792 L77.3285403,1 L106,29.7116626 L105.964309,29.7474038 L105.964309,235.964259 L28.7071508,235.964259 L28.6714597,236 L-4.64694949e-12,207.288337 L28.6536141,178.594545 Z" id="Combined-Shape" fill="#000000" opacity="0.497791109"></path>
                    <g id="Group-14">
                        <rect id="Rectangle" fill="#FFADAD" x="0" y="43.4645669" width="78" height="163.535433"></rect>
                        <rect id="Rectangle" fill="#FF8686" x="0" y="1" width="78" height="44.007874"></rect>
                    </g>
                </g>
            </g>
        </g>
    </g>
</svg>